<svg width="204" height="106" viewBox="0 0 204 106" fill="none" xmlns="http://www.w3.org/2000/svg">
<g clip-path="url(#clip0_1_2)">
<rect width="204" height="106" fill="white"/>
<rect width="102" height="106" fill="#00AD30"/>
<rect x="102" width="102" height="106" fill="#181818"/>
<path d="M62.8763 19.8H71.9963L66.0443 87H50.1083L44.1562 19.8H53.2763L58.0763 72.888L62.8763 19.8ZM100.286 78.072C100.286 80.76 99.4543 82.936 97.7903 84.6C96.1263 86.2 93.9503 87 91.2623 87H75.3263V28.728H73.8863L74.8463 19.8H91.2623C93.9503 19.8 96.1263 20.632 97.7903 22.296C99.4543 23.896 100.286 26.04 100.286 28.728V78.072ZM90.6863 28.728H84.4463V78.072H90.6863C91.0063 78.072 91.1663 77.912 91.1663 77.592V29.208C91.1663 28.888 91.0063 28.728 90.6863 28.728Z" fill="#181818"/>
<path d="M111.33 87H102.21L107.394 28.728H105.666L106.626 19.8H124.194L130.146 87H121.026L119.97 75.48H112.386L111.33 87ZM113.154 66.552H119.202L116.226 33.144L113.154 66.552ZM157.943 78.072C157.943 80.76 157.111 82.936 155.447 84.6C153.783 86.2 151.607 87 148.919 87H132.983V28.728H131.543L132.503 19.8H148.919C151.607 19.8 153.783 20.632 155.447 22.296C157.111 23.896 157.943 26.04 157.943 28.728V78.072ZM148.343 28.728H142.103V78.072H148.343C148.663 78.072 148.823 77.912 148.823 77.592V29.208C148.823 28.888 148.663 28.728 148.343 28.728Z" fill="#00AD30"/>
</g>
<defs>
<clipPath id="clip0_1_2">
<rect width="204" height="106" fill="white"/>
</clipPath>
</defs>
</svg>
